<?xml version="1.0" encoding="utf-8"?>
<!-- Generator: Adobe Illustrator 22.0.0, SVG Export Plug-In . SVG Version: 6.00 Build 0)  -->
<svg version="1.1" xmlns="http://www.w3.org/2000/svg" xmlns:xlink="http://www.w3.org/1999/xlink" x="0px" y="0px"
	 viewBox="0 0 600.3 234" style="enable-background:new 0 0 600.3 234;" xml:space="preserve">
<style type="text/css">
	.st0{fill:#FFFFFF;}
	.st1{display:none;}
	.st2{display:inline;fill:#FFFFFF;}
</style>
<g id="Calque_2">
</g>
<g id="down">
	<path id="DOWN_KeyUp.svg" class="st0" d="M242.7,234h-188c-5.5,0-10-4.5-10-10V10c0-5.5,4.5-10,10-10h188c5.5,0,10,4.5,10,10v214
		C252.7,229.5,248.2,234,242.7,234z M236.7,14c0-3.3-2.7-6-6-6h-172c-3.3,0-6,2.7-6,6v172c0,3.3,2.7,6,6,6h172c3.3,0,6-2.7,6-6V14z
		 M207.5,56c1.5,1.5,1.6,4,0,5.6c0,0,0,0,0,0l-58,87.3c-1.6,1.5-4.1,1.5-5.7,0l-58-87.3c-1.5-1.5-1.6-4,0-5.6c0,0,0,0,0,0L207.5,56
		L207.5,56z M100.6,68l44,66.3c1.2,1.2,3.1,1.2,4.3,0l44-66.3c1.2-1.2,1.2-3.1,0-4.2c0,0,0,0,0,0h-92.2
		C99.5,64.9,99.4,66.8,100.6,68C100.6,68,100.6,68,100.6,68z"/>
	<path id="DOWN_KeyDown.svg" class="st0" d="M545.7,234h-188c-5.5,0-10-4.5-10-10V28c0-5.5,4.5-10,10-10h188c5.5,0,10,4.5,10,10v196
		C555.7,229.5,551.2,234,545.7,234z M539.7,32c0-3.3-2.7-6-6-6h-172c-3.3,0-6,2.7-6,6v172c0,3.3,2.7,6,6,6h172c3.3,0,6-2.7,6-6V32z
		 M510.5,74c1.5,1.5,1.6,4,0,5.6c0,0,0,0,0,0l-58,87.3c-1.6,1.5-4.1,1.5-5.7,0l-58-87.3c-1.5-1.5-1.6-4,0-5.6c0,0,0,0,0,0L510.5,74
		L510.5,74z M403.6,86l44,66.3c1.2,1.2,3.1,1.2,4.3,0l44-66.3c1.2-1.2,1.2-3.1,0-4.2c0,0,0,0,0,0h-92.2
		C402.5,82.9,402.4,84.8,403.6,86C403.6,86,403.6,86,403.6,86z"/>
</g>
<g id="left" class="st1">
	<path id="LEFT_KeyUp.svg" class="st2" d="M242.7,234h-188c-5.5,0-10-4.5-10-10V10c0-5.5,4.5-10,10-10h188c5.5,0,10,4.5,10,10v214
		C252.7,229.5,248.2,234,242.7,234z M236.7,14c0-3.3-2.7-6-6-6h-172c-3.3,0-6,2.7-6,6v172c0,3.3,2.7,6,6,6h172c3.3,0,6-2.7,6-6V14z
		 M182.7,158.9c-1.5,1.5-4,1.6-5.6,0c0,0,0,0,0,0l-87.3-58c-1.5-1.6-1.5-4.1,0-5.7l87.3-58c1.5-1.5,4-1.6,5.6,0c0,0,0,0,0,0
		L182.7,158.9L182.7,158.9z M170.6,52l-66.3,44c-1.2,1.2-1.2,3.1,0,4.3l66.3,44c1.2,1.2,3.1,1.2,4.2,0c0,0,0,0,0,0V52
		C173.7,50.8,171.8,50.8,170.6,52C170.6,52,170.6,52,170.6,52z"/>
	<path id="LEFT_KeyDown.svg" class="st2" d="M545.7,234h-188c-5.5,0-10-4.5-10-10V28c0-5.5,4.5-10,10-10h188c5.5,0,10,4.5,10,10v196
		C555.7,229.5,551.2,234,545.7,234z M539.7,32c0-3.3-2.7-6-6-6h-172c-3.3,0-6,2.7-6,6v172c0,3.3,2.7,6,6,6h172c3.3,0,6-2.7,6-6V32z
		 M485.7,176.9c-1.5,1.5-4,1.6-5.6,0c0,0,0,0,0,0l-87.3-58c-1.5-1.6-1.5-4.1,0-5.7l87.3-58c1.5-1.5,4-1.6,5.6,0c0,0,0,0,0,0
		L485.7,176.9L485.7,176.9z M473.6,70l-66.3,44c-1.2,1.2-1.2,3.1,0,4.3l66.3,44c1.2,1.2,3.1,1.2,4.2,0c0,0,0,0,0,0V70
		C476.7,68.8,474.8,68.8,473.6,70C473.6,70,473.6,70,473.6,70z"/>
</g>
<g id="right" class="st1">
	<path id="RIGHT_KeyUp.svg" class="st2" d="M242.7,234h-188c-5.5,0-10-4.5-10-10V10c0-5.5,4.5-10,10-10h188c5.5,0,10,4.5,10,10v214
		C252.7,229.5,248.2,234,242.7,234z M236.7,14c0-3.3-2.7-6-6-6h-172c-3.3,0-6,2.7-6,6v172c0,3.3,2.7,6,6,6h172c3.3,0,6-2.7,6-6V14z
		 M96.7,37.2c1.5-1.5,4-1.6,5.6,0c0,0,0,0,0,0l87.3,58c1.5,1.6,1.5,4.1,0,5.7l-87.3,58c-1.5,1.5-4,1.6-5.6,0c0,0,0,0,0,0L96.7,37.2
		L96.7,37.2z M108.7,144.1l66.3-44c1.2-1.2,1.2-3.1,0-4.3l-66.3-44c-1.2-1.2-3.1-1.2-4.2,0c0,0,0,0,0,0v92.2
		C105.6,145.3,107.5,145.3,108.7,144.1C108.7,144.1,108.7,144.1,108.7,144.1z"/>
	<path id="RIGHT_KeyDown.svg" class="st2" d="M545.7,234h-188c-5.5,0-10-4.5-10-10V28c0-5.5,4.5-10,10-10h188c5.5,0,10,4.5,10,10
		v196C555.7,229.5,551.2,234,545.7,234z M539.7,32c0-3.3-2.7-6-6-6h-172c-3.3,0-6,2.7-6,6v172c0,3.3,2.7,6,6,6h172c3.3,0,6-2.7,6-6
		V32z M399.7,55.2c1.5-1.5,4-1.6,5.6,0c0,0,0,0,0,0l87.3,58c1.5,1.6,1.5,4.1,0,5.7l-87.3,58c-1.5,1.5-4,1.6-5.6,0c0,0,0,0,0,0
		L399.7,55.2L399.7,55.2z M411.7,162.1l66.3-44c1.2-1.2,1.2-3.1,0-4.3l-66.3-44c-1.2-1.2-3.1-1.2-4.2,0c0,0,0,0,0,0v92.2
		C408.6,163.3,410.5,163.3,411.7,162.1C411.7,162.1,411.7,162.1,411.7,162.1z"/>
</g>
<g id="up" class="st1">
	<path id="UP_KeyUp.svg" class="st2" d="M242.7,234h-188c-5.5,0-10-4.5-10-10V10c0-5.5,4.5-10,10-10h188c5.5,0,10,4.5,10,10v214
		C252.7,229.5,248.2,234,242.7,234z M236.7,14c0-3.3-2.7-6-6-6h-172c-3.3,0-6,2.7-6,6v172c0,3.3,2.7,6,6,6h172c3.3,0,6-2.7,6-6V14z
		 M84.9,141.8c-1.6-1.6-1.6-4.1,0-5.7l58-88c1.6-1.6,4.1-1.6,5.7,0l58,88c1.6,1.6,1.6,4.1,0,5.7H84.9z M191.7,129.7l-44-66.8
		c-1.2-1.2-3.1-1.2-4.3,0c0,0,0,0,0,0l-44,66.8c-1.2,1.2-1.2,3.1,0,4.3h92.2C192.9,132.8,192.9,130.9,191.7,129.7z"/>
	<path id="UP_KeyDown.svg" class="st2" d="M545.7,234h-188c-5.5,0-10-4.5-10-10V28c0-5.5,4.5-10,10-10h188c5.5,0,10,4.5,10,10v196
		C555.7,229.5,551.2,234,545.7,234z M539.7,32c0-3.3-2.7-6-6-6h-172c-3.3,0-6,2.7-6,6v172c0,3.3,2.7,6,6,6h172c3.3,0,6-2.7,6-6V32z
		 M387.9,159.8c-1.6-1.6-1.6-4.1,0-5.7l58-88c1.6-1.6,4.1-1.6,5.7,0l58,88c1.6,1.6,1.6,4.1,0,5.7H387.9z M494.7,147.7l-44-66.8
		c-1.2-1.2-3.1-1.2-4.3,0c0,0,0,0,0,0l-44,66.8c-1.2,1.2-1.2,3.1,0,4.3h92.2C495.9,150.8,495.9,148.9,494.7,147.7z"/>
</g>
</svg>
