<svg xmlns="http://www.w3.org/2000/svg" width="1049.12" height="159.991" viewBox="0 0 1600 244">
  <metadata><?xpacket begin="﻿" id="W5M0MpCehiHzreSzNTczkc9d"?>
<x:xmpmeta xmlns:x="adobe:ns:meta/" x:xmptk="Adobe XMP Core 5.6-c138 79.159824, 2016/09/14-01:09:01        ">
   <rdf:RDF xmlns:rdf="http://www.w3.org/1999/02/22-rdf-syntax-ns#">
      <rdf:Description rdf:about=""/>
   </rdf:RDF>
</x:xmpmeta>
                                                                                                    
                                                                                                    
                                                                                                    
                                                                                                    
                                                                                                    
                                                                                                    
                                                                                                    
                                                                                                    
                                                                                                    
                                                                                                    
                                                                                                    
                                                                                                    
                                                                                                    
                                                                                                    
                                                                                                    
                                                                                                    
                                                                                                    
                                                                                                    
                                                                                                    
                                                                                                    
                           
<?xpacket end="w"?></metadata>
<defs>
    <style>
      .cls-1 {
        fill: #fff;
        fill-rule: evenodd;
      }
    </style>
  </defs>
  <path id="HUMANIUM" class="cls-1" d="M1553.69,242.1V107.9l-61.2,122.7a3.448,3.448,0,0,1-2.7,1.8h-36.9c-0.9,0-2.7-.9-3-1.8l-65.1-126V239.3c0,1.2-1.5,2.7-3.3,2.7h-39.6a2.763,2.763,0,0,1-3-2.7V4.7a2.763,2.763,0,0,1,3-2.7h40.2c0.9,0,2.7.9,3,1.8l86.1,175.8,81.9-175.8a4.572,4.572,0,0,1,3.3-1.8h39.6a3.062,3.062,0,0,1,3.3,2.7V242.1h-45.6ZM1234.4,242c-49.51,0-90.01-30.6-90.01-80.1V2.5h45.3V161.6c2.7,23.7,22.5,36.3,44.71,36.3,22.5,0,44.7-11.7,44.7-36V4.7a3.062,3.062,0,0,1,3.3-2.7h39a3.213,3.213,0,0,1,3,2.7V161.9C1324.4,212.6,1285.4,242,1234.4,242ZM1080.6,116V2h45.9V241.9h-45.9V116Zm-26.9,126h-39.6c-0.6,0-2.4-.3-2.7-0.9L901,83V241.4H855.1V4.7a3.213,3.213,0,0,1,3-2.7H898c0.6,0,2.4.3,2.7,0.9L1011.4,161V4.7c0-1.2,1.5-2.7,3.6-2.7h38.7a3.062,3.062,0,0,1,3.3,2.7V239.3A3.062,3.062,0,0,1,1053.7,242Zm-206.393,0h-41.4a2.883,2.883,0,0,1-2.7-1.8l-47.4-133.8L720.969,206h50.024l13,35.9-77.472.064a3.811,3.811,0,0,1-.515.038h-41.1c-0.026,0-.05,0-0.076,0l-3.125-1.81a2.4,2.4,0,0,1,.2-1.787l90.9-234.6c0.9-2.4,5.1-2.4,6,0l91.2,234.6C850.908,240.2,849.408,242,847.307,242ZM607.312,107.9l-61.2,122.7a3.448,3.448,0,0,1-2.7,1.8h-36.9c-0.9,0-2.7-.9-3-1.8l-65.1-126V239.3c0,1.2-1.5,2.7-3.3,2.7h-39.6a2.763,2.763,0,0,1-3-2.7V4.7a2.763,2.763,0,0,1,3-2.7h40.2c0.9,0,2.7.9,3,1.8l86.1,175.8,81.9-175.8a4.572,4.572,0,0,1,3.3-1.8h39.6a3.062,3.062,0,0,1,3.3,2.7V242.1h-45.6V107.9ZM288.013,242c-49.5,0-90-30.6-90-80.1V2.5h45.3V161.6c2.7,23.7,22.5,36.3,44.7,36.3,22.5,0,44.7-11.7,44.7-36V4.7a3.062,3.062,0,0,1,3.3-2.7h39a3.213,3.213,0,0,1,3,2.7V161.9C378.014,212.6,339.014,242,288.013,242Zm-108.1,0h-39.3c-1.8,0-3.3-1.5-3.3-2.7V197h-90.9v42.3a3.062,3.062,0,0,1-3.3,2.7H3.813c-1.8,0-3.3-1.5-3.3-2.7V152h45.9v0.3h90.9V4.7c0-1.2,1.5-2.7,3.3-2.7h39.3a3.062,3.062,0,0,1,3.3,2.7V239.3A3.062,3.062,0,0,1,179.915,242ZM0.513,4.7c0-1.2,1.5-2.7,3.3-2.7h39.3a3.062,3.062,0,0,1,3.3,2.7V106.1H0.513V4.7Z"/>
</svg>
